<?xml version="1.0" encoding="UTF-8" standalone="no"?><svg width="374" height="373" viewBox="0 0 374 373" fill="none" xmlns="http://www.w3.org/2000/svg">
<g clip-path="url(#clip0_7084_1177)">
<rect width="373.333" height="373" rx="8" fill="#F9FBFC"/>
<path d="M76.3335 84C76.3335 79.5817 79.9152 76 84.3335 76H373.333V365C373.333 369.418 369.752 373 365.333 373H76.3335V84Z" fill="white"/>
<rect x="148.333" y="159" width="141" height="15" rx="2" fill="#E3E3E3"/>
<path d="M120.333 166C123.095 166 125.333 163.761 125.333 161C125.333 158.239 123.095 156 120.333 156C117.572 156 115.333 158.239 115.333 161C115.333 163.761 117.572 166 120.333 166Z" fill="#936EFE"/>
<path d="M120.334 168.5C115.324 168.5 111.244 171.86 111.244 176C111.244 176.28 111.464 176.5 111.744 176.5H128.924C129.204 176.5 129.424 176.28 129.424 176C129.424 171.86 125.344 168.5 120.334 168.5Z" fill="#936EFE"/>
<rect x="148.333" y="207" width="141" height="15" rx="2" fill="#E3E3E3"/>
<path d="M125.333 205.5H115.333C112.333 205.5 110.333 207 110.333 210.5V217.5C110.333 221 112.333 222.5 115.333 222.5H125.333C128.333 222.5 130.333 221 130.333 217.5V210.5C130.333 207 128.333 205.5 125.333 205.5ZM125.803 211.59L122.673 214.09C122.013 214.62 121.173 214.88 120.333 214.88C119.493 214.88 118.643 214.62 117.993 214.09L114.863 211.59C114.543 211.33 114.493 210.85 114.743 210.53C115.003 210.21 115.473 210.15 115.793 210.41L118.923 212.91C119.683 213.52 120.973 213.52 121.733 212.91L124.863 210.41C125.183 210.15 125.663 210.2 125.913 210.53C126.173 210.85 126.123 211.33 125.803 211.59Z" fill="#936EFE"/>
<rect x="148.333" y="255" width="141" height="15" rx="2" fill="#E3E3E3"/>
<path d="M126.333 254H124.083V252.75C124.083 252.34 123.743 252 123.333 252C122.923 252 122.583 252.34 122.583 252.75V271.25C122.583 271.66 122.923 272 123.333 272C123.743 272 124.083 271.66 124.083 271.25V270H126.333C128.543 270 130.333 268.21 130.333 266V258C130.333 255.79 128.543 254 126.333 254Z" fill="#936EFE"/>
<path d="M114.833 254C112.623 254 110.833 255.79 110.833 258V266C110.833 268.21 112.623 270 114.833 270H119.833C120.383 270 120.833 269.55 120.833 269V255C120.833 254.45 120.383 254 119.833 254H114.833ZM115.003 262.38C114.953 262.5 114.883 262.61 114.793 262.71C114.693 262.8 114.583 262.87 114.463 262.92C114.343 262.97 114.213 263 114.083 263C113.953 263 113.823 262.97 113.703 262.92C113.583 262.87 113.473 262.8 113.373 262.71C113.283 262.61 113.213 262.5 113.153 262.38C113.103 262.26 113.083 262.13 113.083 262C113.083 261.74 113.193 261.48 113.373 261.29C113.423 261.25 113.473 261.21 113.523 261.17C113.583 261.13 113.643 261.1 113.703 261.08C113.763 261.05 113.823 261.03 113.883 261.02C114.223 260.95 114.563 261.06 114.793 261.29C114.973 261.48 115.083 261.74 115.083 262C115.083 262.13 115.053 262.26 115.003 262.38ZM118.503 262.38C118.453 262.5 118.383 262.61 118.293 262.71C118.193 262.8 118.083 262.87 117.963 262.92C117.843 262.97 117.713 263 117.583 263C117.453 263 117.323 262.97 117.203 262.92C117.083 262.87 116.973 262.8 116.873 262.71C116.683 262.52 116.583 262.27 116.583 262C116.583 261.87 116.613 261.74 116.663 261.62C116.713 261.49 116.783 261.39 116.873 261.29C117.243 260.92 117.913 260.92 118.293 261.29C118.473 261.48 118.583 261.74 118.583 262C118.583 262.13 118.553 262.26 118.503 262.38Z" fill="#936EFE"/>
<rect x="148.333" y="303" width="141" height="15" rx="2" fill="#E3E3E3"/>
<path d="M130.333 319.25C130.333 319.66 129.993 320 129.583 320H111.083C110.673 320 110.333 319.66 110.333 319.25C110.333 318.84 110.673 318.5 111.083 318.5H129.583C129.993 318.5 130.333 318.84 130.333 319.25Z" fill="#936EFE"/>
<path d="M123.723 302.52L112.983 313.26C112.573 313.67 111.913 313.67 111.513 313.26H111.503C110.113 311.86 110.113 309.6 111.503 308.21L118.653 301.06C120.053 299.66 122.313 299.66 123.713 301.06C124.123 301.45 124.123 302.12 123.723 302.52Z" fill="#936EFE"/>
<path d="M129.153 306.49L126.103 303.44C125.693 303.03 125.033 303.03 124.633 303.44L113.893 314.18C113.483 314.58 113.483 315.24 113.893 315.65L116.943 318.71C118.343 320.1 120.603 320.1 122.003 318.71L129.143 311.56C130.563 310.16 130.563 307.89 129.153 306.49ZM121.093 315.52L119.883 316.74C119.633 316.99 119.223 316.99 118.963 316.74C118.713 316.49 118.713 316.08 118.963 315.82L120.183 314.6C120.423 314.36 120.843 314.36 121.093 314.6C121.343 314.85 121.343 315.28 121.093 315.52ZM125.063 311.55L122.623 314C122.373 314.24 121.963 314.24 121.703 314C121.453 313.75 121.453 313.34 121.703 313.08L124.153 310.63C124.393 310.39 124.813 310.39 125.063 310.63C125.313 310.89 125.313 311.3 125.063 311.55Z" fill="#936EFE"/>
<path d="M108.901 125L112.213 112.4H116.353L119.665 125H117.217L116.533 122.228H112.033L111.349 125H108.901ZM112.591 120.032H115.975L114.445 113.894H114.121L112.591 120.032ZM124.719 125.252C123.855 125.252 123.069 125.072 122.361 124.712C121.665 124.352 121.113 123.83 120.705 123.146C120.297 122.462 120.093 121.634 120.093 120.662V120.41C120.093 119.438 120.297 118.61 120.705 117.926C121.113 117.242 121.665 116.72 122.361 116.36C123.069 116 123.855 115.82 124.719 115.82C125.571 115.82 126.303 115.97 126.915 116.27C127.527 116.57 128.019 116.984 128.391 117.512C128.775 118.028 129.027 118.616 129.147 119.276L126.951 119.744C126.903 119.384 126.795 119.06 126.627 118.772C126.459 118.484 126.219 118.256 125.907 118.088C125.607 117.92 125.229 117.836 124.773 117.836C124.317 117.836 123.903 117.938 123.531 118.142C123.171 118.334 122.883 118.628 122.667 119.024C122.463 119.408 122.361 119.882 122.361 120.446V120.626C122.361 121.19 122.463 121.67 122.667 122.066C122.883 122.45 123.171 122.744 123.531 122.948C123.903 123.14 124.317 123.236 124.773 123.236C125.457 123.236 125.973 123.062 126.321 122.714C126.681 122.354 126.909 121.886 127.005 121.31L129.201 121.832C129.045 122.468 128.775 123.05 128.391 123.578C128.019 124.094 127.527 124.502 126.915 124.802C126.303 125.102 125.571 125.252 124.719 125.252ZM134.546 125.252C133.682 125.252 132.896 125.072 132.188 124.712C131.492 124.352 130.94 123.83 130.532 123.146C130.124 122.462 129.92 121.634 129.92 120.662V120.41C129.92 119.438 130.124 118.61 130.532 117.926C130.94 117.242 131.492 116.72 132.188 116.36C132.896 116 133.682 115.82 134.546 115.82C135.398 115.82 136.13 115.97 136.742 116.27C137.354 116.57 137.846 116.984 138.218 117.512C138.602 118.028 138.854 118.616 138.974 119.276L136.778 119.744C136.73 119.384 136.622 119.06 136.454 118.772C136.286 118.484 136.046 118.256 135.734 118.088C135.434 117.92 135.056 117.836 134.6 117.836C134.144 117.836 133.73 117.938 133.358 118.142C132.998 118.334 132.71 118.628 132.494 119.024C132.29 119.408 132.188 119.882 132.188 120.446V120.626C132.188 121.19 132.29 121.67 132.494 122.066C132.71 122.45 132.998 122.744 133.358 122.948C133.73 123.14 134.144 123.236 134.6 123.236C135.284 123.236 135.8 123.062 136.148 122.714C136.508 122.354 136.736 121.886 136.832 121.31L139.028 121.832C138.872 122.468 138.602 123.05 138.218 123.578C137.846 124.094 137.354 124.502 136.742 124.802C136.13 125.102 135.398 125.252 134.546 125.252ZM144.427 125.252C143.539 125.252 142.741 125.072 142.033 124.712C141.325 124.352 140.767 123.83 140.359 123.146C139.951 122.462 139.747 121.64 139.747 120.68V120.392C139.747 119.432 139.951 118.61 140.359 117.926C140.767 117.242 141.325 116.72 142.033 116.36C142.741 116 143.539 115.82 144.427 115.82C145.315 115.82 146.113 116 146.821 116.36C147.529 116.72 148.087 117.242 148.495 117.926C148.903 118.61 149.107 119.432 149.107 120.392V120.68C149.107 121.64 148.903 122.462 148.495 123.146C148.087 123.83 147.529 124.352 146.821 124.712C146.113 125.072 145.315 125.252 144.427 125.252ZM144.427 123.236C145.123 123.236 145.699 123.014 146.155 122.57C146.611 122.114 146.839 121.466 146.839 120.626V120.446C146.839 119.606 146.611 118.964 146.155 118.52C145.711 118.064 145.135 117.836 144.427 117.836C143.731 117.836 143.155 118.064 142.699 118.52C142.243 118.964 142.015 119.606 142.015 120.446V120.626C142.015 121.466 142.243 122.114 142.699 122.57C143.155 123.014 143.731 123.236 144.427 123.236ZM153.882 125.144C153.186 125.144 152.574 124.988 152.046 124.676C151.53 124.352 151.128 123.908 150.84 123.344C150.552 122.78 150.408 122.132 150.408 121.4V116.072H152.676V121.22C152.676 121.892 152.838 122.396 153.162 122.732C153.498 123.068 153.972 123.236 154.584 123.236C155.28 123.236 155.82 123.008 156.204 122.552C156.588 122.084 156.78 121.436 156.78 120.608V116.072H159.048V125H156.816V123.83H156.492C156.348 124.13 156.078 124.424 155.682 124.712C155.286 125 154.686 125.144 153.882 125.144ZM160.852 125V116.072H163.084V117.242H163.408C163.552 116.93 163.822 116.636 164.218 116.36C164.614 116.072 165.214 115.928 166.018 115.928C166.714 115.928 167.32 116.09 167.836 116.414C168.364 116.726 168.772 117.164 169.06 117.728C169.348 118.28 169.492 118.928 169.492 119.672V125H167.224V119.852C167.224 119.18 167.056 118.676 166.72 118.34C166.396 118.004 165.928 117.836 165.316 117.836C164.62 117.836 164.08 118.07 163.696 118.538C163.312 118.994 163.12 119.636 163.12 120.464V125H160.852ZM174.398 125C173.81 125 173.33 124.82 172.958 124.46C172.598 124.088 172.418 123.596 172.418 122.984V117.944H170.186V116.072H172.418V113.3H174.686V116.072H177.134V117.944H174.686V122.588C174.686 122.948 174.854 123.128 175.19 123.128H176.918V125H174.398ZM182.245 125V112.4H184.621V125H182.245ZM186.343 125V116.072H188.575V117.242H188.899C189.043 116.93 189.313 116.636 189.709 116.36C190.105 116.072 190.705 115.928 191.509 115.928C192.205 115.928 192.811 116.09 193.327 116.414C193.855 116.726 194.263 117.164 194.551 117.728C194.839 118.28 194.983 118.928 194.983 119.672V125H192.715V119.852C192.715 119.18 192.547 118.676 192.211 118.34C191.887 118.004 191.419 117.836 190.807 117.836C190.111 117.836 189.571 118.07 189.187 118.538C188.803 118.994 188.611 119.636 188.611 120.464V125H186.343ZM197.945 125V117.944H195.677V116.072H197.945V114.416C197.945 113.804 198.125 113.318 198.485 112.958C198.857 112.586 199.337 112.4 199.925 112.4H202.265V114.272H200.717C200.381 114.272 200.213 114.452 200.213 114.812V116.072H202.553V117.944H200.213V125H197.945ZM207.538 125.252C206.65 125.252 205.852 125.072 205.144 124.712C204.436 124.352 203.878 123.83 203.47 123.146C203.062 122.462 202.858 121.64 202.858 120.68V120.392C202.858 119.432 203.062 118.61 203.47 117.926C203.878 117.242 204.436 116.72 205.144 116.36C205.852 116 206.65 115.82 207.538 115.82C208.426 115.82 209.224 116 209.932 116.36C210.64 116.72 211.198 117.242 211.606 117.926C212.014 118.61 212.218 119.432 212.218 120.392V120.68C212.218 121.64 212.014 122.462 211.606 123.146C211.198 123.83 210.64 124.352 209.932 124.712C209.224 125.072 208.426 125.252 207.538 125.252ZM207.538 123.236C208.234 123.236 208.81 123.014 209.266 122.57C209.722 122.114 209.95 121.466 209.95 120.626V120.446C209.95 119.606 209.722 118.964 209.266 118.52C208.822 118.064 208.246 117.836 207.538 117.836C206.842 117.836 206.266 118.064 205.81 118.52C205.354 118.964 205.126 119.606 205.126 120.446V120.626C205.126 121.466 205.354 122.114 205.81 122.57C206.266 123.014 206.842 123.236 207.538 123.236ZM213.591 125V116.072H215.823V117.08H216.147C216.279 116.72 216.495 116.456 216.795 116.288C217.107 116.12 217.467 116.036 217.875 116.036H218.955V118.052H217.839C217.263 118.052 216.789 118.208 216.417 118.52C216.045 118.82 215.859 119.288 215.859 119.924V125H213.591ZM220.008 125V116.072H222.24V117.044H222.564C222.72 116.744 222.978 116.486 223.338 116.27C223.698 116.042 224.172 115.928 224.76 115.928C225.396 115.928 225.906 116.054 226.29 116.306C226.674 116.546 226.968 116.864 227.172 117.26H227.496C227.7 116.876 227.988 116.558 228.36 116.306C228.732 116.054 229.26 115.928 229.944 115.928C230.496 115.928 230.994 116.048 231.438 116.288C231.894 116.516 232.254 116.87 232.518 117.35C232.794 117.818 232.932 118.412 232.932 119.132V125H230.664V119.294C230.664 118.802 230.538 118.436 230.286 118.196C230.034 117.944 229.68 117.818 229.224 117.818C228.708 117.818 228.306 117.986 228.018 118.322C227.742 118.646 227.604 119.114 227.604 119.726V125H225.336V119.294C225.336 118.802 225.21 118.436 224.958 118.196C224.706 117.944 224.352 117.818 223.896 117.818C223.38 117.818 222.978 117.986 222.69 118.322C222.414 118.646 222.276 119.114 222.276 119.726V125H220.008ZM237.423 125.252C236.787 125.252 236.217 125.144 235.713 124.928C235.209 124.7 234.807 124.376 234.507 123.956C234.219 123.524 234.075 123.002 234.075 122.39C234.075 121.778 234.219 121.268 234.507 120.86C234.807 120.44 235.215 120.128 235.731 119.924C236.259 119.708 236.859 119.6 237.531 119.6H239.979V119.096C239.979 118.676 239.847 118.334 239.583 118.07C239.319 117.794 238.899 117.656 238.323 117.656C237.759 117.656 237.339 117.788 237.063 118.052C236.787 118.304 236.607 118.634 236.523 119.042L234.435 118.34C234.579 117.884 234.807 117.47 235.119 117.098C235.443 116.714 235.869 116.408 236.397 116.18C236.937 115.94 237.591 115.82 238.359 115.82C239.535 115.82 240.465 116.114 241.149 116.702C241.833 117.29 242.175 118.142 242.175 119.258V122.588C242.175 122.948 242.343 123.128 242.679 123.128H243.399V125H241.887C241.443 125 241.077 124.892 240.789 124.676C240.501 124.46 240.357 124.172 240.357 123.812V123.794H240.015C239.967 123.938 239.859 124.13 239.691 124.37C239.523 124.598 239.259 124.802 238.899 124.982C238.539 125.162 238.047 125.252 237.423 125.252ZM237.819 123.416C238.455 123.416 238.971 123.242 239.367 122.894C239.775 122.534 239.979 122.06 239.979 121.472V121.292H237.693C237.273 121.292 236.943 121.382 236.703 121.562C236.463 121.742 236.343 121.994 236.343 122.318C236.343 122.642 236.469 122.906 236.721 123.11C236.973 123.314 237.339 123.416 237.819 123.416ZM247.107 125C246.519 125 246.039 124.82 245.667 124.46C245.307 124.088 245.127 123.596 245.127 122.984V117.944H242.895V116.072H245.127V113.3H247.395V116.072H249.843V117.944H247.395V122.588C247.395 122.948 247.563 123.128 247.899 123.128H249.627V125H247.107ZM251.176 125V116.072H253.444V125H251.176ZM252.31 115.028C251.902 115.028 251.554 114.896 251.266 114.632C250.99 114.368 250.852 114.02 250.852 113.588C250.852 113.156 250.99 112.808 251.266 112.544C251.554 112.28 251.902 112.148 252.31 112.148C252.73 112.148 253.078 112.28 253.354 112.544C253.63 112.808 253.768 113.156 253.768 113.588C253.768 114.02 253.63 114.368 253.354 114.632C253.078 114.896 252.73 115.028 252.31 115.028ZM259.485 125.252C258.597 125.252 257.799 125.072 257.091 124.712C256.383 124.352 255.825 123.83 255.417 123.146C255.009 122.462 254.805 121.64 254.805 120.68V120.392C254.805 119.432 255.009 118.61 255.417 117.926C255.825 117.242 256.383 116.72 257.091 116.36C257.799 116 258.597 115.82 259.485 115.82C260.373 115.82 261.171 116 261.879 116.36C262.587 116.72 263.145 117.242 263.553 117.926C263.961 118.61 264.165 119.432 264.165 120.392V120.68C264.165 121.64 263.961 122.462 263.553 123.146C263.145 123.83 262.587 124.352 261.879 124.712C261.171 125.072 260.373 125.252 259.485 125.252ZM259.485 123.236C260.181 123.236 260.757 123.014 261.213 122.57C261.669 122.114 261.897 121.466 261.897 120.626V120.446C261.897 119.606 261.669 118.964 261.213 118.52C260.769 118.064 260.193 117.836 259.485 117.836C258.789 117.836 258.213 118.064 257.757 118.52C257.301 118.964 257.073 119.606 257.073 120.446V120.626C257.073 121.466 257.301 122.114 257.757 122.57C258.213 123.014 258.789 123.236 259.485 123.236ZM265.539 125V116.072H267.771V117.242H268.095C268.239 116.93 268.509 116.636 268.905 116.36C269.301 116.072 269.901 115.928 270.705 115.928C271.401 115.928 272.007 116.09 272.523 116.414C273.051 116.726 273.459 117.164 273.747 117.728C274.035 118.28 274.179 118.928 274.179 119.672V125H271.911V119.852C271.911 119.18 271.743 118.676 271.407 118.34C271.083 118.004 270.615 117.836 270.003 117.836C269.307 117.836 268.767 118.07 268.383 118.538C267.999 118.994 267.807 119.636 267.807 120.464V125H265.539ZM279.619 125.252C278.455 125.252 277.501 125 276.757 124.496C276.013 123.992 275.563 123.272 275.407 122.336L277.495 121.796C277.579 122.216 277.717 122.546 277.909 122.786C278.113 123.026 278.359 123.2 278.647 123.308C278.947 123.404 279.271 123.452 279.619 123.452C280.147 123.452 280.537 123.362 280.789 123.182C281.041 122.99 281.167 122.756 281.167 122.48C281.167 122.204 281.047 121.994 280.807 121.85C280.567 121.694 280.183 121.568 279.655 121.472L279.151 121.382C278.527 121.262 277.957 121.1 277.441 120.896C276.925 120.68 276.511 120.386 276.199 120.014C275.887 119.642 275.731 119.162 275.731 118.574C275.731 117.686 276.055 117.008 276.703 116.54C277.351 116.06 278.203 115.82 279.259 115.82C280.255 115.82 281.083 116.042 281.743 116.486C282.403 116.93 282.835 117.512 283.039 118.232L280.933 118.88C280.837 118.424 280.639 118.1 280.339 117.908C280.051 117.716 279.691 117.62 279.259 117.62C278.827 117.62 278.497 117.698 278.269 117.854C278.041 117.998 277.927 118.202 277.927 118.466C277.927 118.754 278.047 118.97 278.287 119.114C278.527 119.246 278.851 119.348 279.259 119.42L279.763 119.51C280.435 119.63 281.041 119.792 281.581 119.996C282.133 120.188 282.565 120.47 282.877 120.842C283.201 121.202 283.363 121.694 283.363 122.318C283.363 123.254 283.021 123.98 282.337 124.496C281.665 125 280.759 125.252 279.619 125.252Z" fill="#232323"/>
<g filter="url(#filter0_d_7084_1177)">
<circle cx="76.3335" cy="76" r="36" fill="white"/>
</g>
<path d="M85.0536 65.4933L77.7202 62.7466C76.9602 62.4666 75.7202 62.4666 74.9602 62.7466L67.6269 65.4933C66.2136 66.0266 65.0669 67.68 65.0669 69.1866V79.9866C65.0669 81.0666 65.7736 82.4933 66.6402 83.1333L73.9736 88.6133C75.2669 89.5866 77.3869 89.5866 78.6802 88.6133L86.0136 83.1333C86.8802 82.48 87.5869 81.0666 87.5869 79.9866V69.1866C87.6002 67.68 86.4536 66.0266 85.0536 65.4933ZM80.9736 72.96L75.2402 78.6933C75.0402 78.8933 74.7869 78.9866 74.5336 78.9866C74.2802 78.9866 74.0269 78.8933 73.8269 78.6933L71.6936 76.5333C71.3069 76.1466 71.3069 75.5066 71.6936 75.12C72.0802 74.7333 72.7202 74.7333 73.1069 75.12L74.5469 76.56L79.5736 71.5333C79.9602 71.1466 80.6002 71.1466 80.9869 71.5333C81.3736 71.92 81.3736 72.5733 80.9736 72.96Z" fill="#936EFE"/>
<path d="M318.069 161.97C318.138 161.9 318.219 161.845 318.309 161.807C318.399 161.769 318.495 161.75 318.593 161.75C318.69 161.75 318.787 161.769 318.877 161.807C318.967 161.845 319.048 161.9 319.116 161.97C319.402 162.259 319.406 162.726 319.126 163.02L313.213 170.01C313.146 170.084 313.065 170.143 312.974 170.184C312.883 170.225 312.785 170.247 312.685 170.249C312.586 170.251 312.487 170.233 312.394 170.195C312.302 170.157 312.218 170.101 312.148 170.03L308.55 166.384C308.412 166.242 308.334 166.052 308.334 165.854C308.334 165.656 308.412 165.465 308.55 165.324C308.619 165.254 308.7 165.199 308.79 165.161C308.88 165.123 308.976 165.104 309.074 165.104C309.171 165.104 309.268 165.123 309.358 165.161C309.448 165.199 309.529 165.254 309.597 165.324L312.649 168.417L318.049 161.992C318.056 161.984 318.062 161.977 318.069 161.97Z" fill="#00B84A"/>
<path d="M318.069 209.97C318.138 209.9 318.219 209.845 318.309 209.807C318.399 209.769 318.495 209.75 318.593 209.75C318.69 209.75 318.787 209.769 318.877 209.807C318.967 209.845 319.048 209.9 319.116 209.97C319.402 210.259 319.406 210.726 319.126 211.02L313.213 218.01C313.146 218.084 313.065 218.143 312.974 218.184C312.883 218.225 312.785 218.247 312.685 218.249C312.586 218.251 312.487 218.233 312.394 218.195C312.302 218.157 312.218 218.101 312.148 218.03L308.55 214.384C308.412 214.242 308.334 214.052 308.334 213.854C308.334 213.656 308.412 213.465 308.55 213.324C308.619 213.254 308.7 213.199 308.79 213.161C308.88 213.123 308.976 213.104 309.074 213.104C309.171 213.104 309.268 213.123 309.358 213.161C309.448 213.199 309.529 213.254 309.597 213.324L312.649 216.417L318.049 209.992C318.056 209.984 318.062 209.977 318.069 209.97Z" fill="#00B84A"/>
<path d="M318.069 257.97C318.138 257.9 318.219 257.845 318.309 257.807C318.399 257.769 318.495 257.75 318.593 257.75C318.69 257.75 318.787 257.769 318.877 257.807C318.967 257.845 319.048 257.9 319.116 257.97C319.402 258.259 319.406 258.726 319.126 259.02L313.213 266.01C313.146 266.084 313.065 266.143 312.974 266.184C312.883 266.225 312.785 266.247 312.685 266.249C312.586 266.251 312.487 266.233 312.394 266.195C312.302 266.157 312.218 266.101 312.148 266.03L308.55 262.384C308.412 262.242 308.334 262.052 308.334 261.854C308.334 261.656 308.412 261.465 308.55 261.324C308.619 261.254 308.7 261.199 308.79 261.161C308.88 261.123 308.976 261.104 309.074 261.104C309.171 261.104 309.268 261.123 309.358 261.161C309.448 261.199 309.529 261.254 309.597 261.324L312.649 264.417L318.049 257.992C318.056 257.984 318.062 257.977 318.069 257.97Z" fill="#00B84A"/>
<path d="M318.069 305.97C318.138 305.9 318.219 305.845 318.309 305.807C318.399 305.769 318.495 305.75 318.593 305.75C318.69 305.75 318.787 305.769 318.877 305.807C318.967 305.845 319.048 305.9 319.116 305.97C319.402 306.259 319.406 306.726 319.126 307.02L313.213 314.01C313.146 314.084 313.065 314.143 312.974 314.184C312.883 314.225 312.785 314.247 312.685 314.249C312.586 314.251 312.487 314.233 312.394 314.195C312.302 314.157 312.218 314.101 312.148 314.03L308.55 310.384C308.412 310.242 308.334 310.052 308.334 309.854C308.334 309.656 308.412 309.465 308.55 309.324C308.619 309.254 308.7 309.199 308.79 309.161C308.88 309.123 308.976 309.104 309.074 309.104C309.171 309.104 309.268 309.123 309.358 309.161C309.448 309.199 309.529 309.254 309.597 309.324L312.649 312.417L318.049 305.992C318.056 305.984 318.062 305.977 318.069 305.97Z" fill="#00B84A"/>
</g>
<defs>
<filter id="filter0_d_7084_1177" x="-14.6665" y="-17" width="232" height="232" filterUnits="userSpaceOnUse" color-interpolation-filters="sRGB">
<feFlood flood-opacity="0" result="BackgroundImageFix"/>
<feColorMatrix in="SourceAlpha" type="matrix" values="0 0 0 0 0 0 0 0 0 0 0 0 0 0 0 0 0 0 127 0" result="hardAlpha"/>
<feOffset dx="25" dy="23"/>
<feGaussianBlur stdDeviation="40"/>
<feComposite in2="hardAlpha" operator="out"/>
<feColorMatrix type="matrix" values="0 0 0 0 0.0196354 0 0 0 0 0.0358271 0 0 0 0 0.120833 0 0 0 0.08 0"/>
<feBlend mode="normal" in2="BackgroundImageFix" result="effect1_dropShadow_7084_1177"/>
<feBlend mode="normal" in="SourceGraphic" in2="effect1_dropShadow_7084_1177" result="shape"/>
</filter>
<clipPath id="clip0_7084_1177">
<rect width="373.333" height="373" rx="8" fill="white"/>
</clipPath>
</defs>
</svg>
