<?xml version="1.0" encoding="UTF-8" standalone="no"?><svg width="72" height="72" viewBox="0 0 72 72" fill="none" xmlns="http://www.w3.org/2000/svg">
<rect width="72" height="72" rx="8" fill="#F9FBFC"/>
<path d="M39.9998 40.6667C39.9998 45.4533 36.1198 49.3333 31.3332 49.3333C26.5465 49.3333 22.6665 45.4533 22.6665 40.6667C22.6665 35.88 26.5465 32 31.3332 32C31.5598 32 31.7998 32.0133 32.0265 32.0267C36.2532 32.36 39.6398 35.7467 39.9732 39.9733C39.9865 40.2 39.9998 40.44 39.9998 40.6667Z" fill="#936EFE"/>
<path d="M49.3331 31.3332C49.3331 35.6798 46.1331 39.2665 41.9731 39.8932V39.8132C41.5598 34.6398 37.3598 30.4398 32.1464 30.0265H32.1064C32.7331 25.8665 36.3198 22.6665 40.6664 22.6665C45.4531 22.6665 49.3331 26.5465 49.3331 31.3332Z" fill="#936EFE"/>
<path d="M27.4532 22.6665H23.9998C23.2665 22.6665 22.6665 23.2665 22.6665 23.9998V27.4532C22.6665 28.6398 24.1065 29.2398 24.9465 28.3998L28.3998 24.9465C29.2265 24.1065 28.6398 22.6665 27.4532 22.6665Z" fill="#936EFE"/>
<path d="M44.5466 49.3334H48C48.7333 49.3334 49.3333 48.7334 49.3333 48V44.5467C49.3333 43.36 47.8933 42.76 47.0533 43.6L43.6 47.0534C42.7733 47.8934 43.36 49.3334 44.5466 49.3334Z" fill="#936EFE"/>
</svg>
