<?xml version="1.0" encoding="UTF-8" standalone="no"?><svg width="72" height="72" viewBox="0 0 72 72" fill="none" xmlns="http://www.w3.org/2000/svg">
<rect width="72" height="72" rx="8" fill="#F9FBFC"/>
<path d="M35.9999 38.6665C29.3199 38.6665 23.8799 43.1465 23.8799 48.6665C23.8799 49.0398 24.1732 49.3332 24.5465 49.3332H47.4532C47.8266 49.3332 48.1199 49.0398 48.1199 48.6665C48.1199 43.1465 42.6799 38.6665 35.9999 38.6665Z" fill="#936EFE"/>
<path d="M36.0002 22.6665C34.4268 22.6665 32.9868 23.2132 31.8402 24.1332C30.3068 25.3465 29.3335 27.2265 29.3335 29.3332C29.3335 30.5865 29.6802 31.7598 30.3068 32.7598C31.4535 34.6932 33.5602 35.9998 36.0002 35.9998C37.6802 35.9998 39.2135 35.3865 40.3868 34.3332C40.9068 33.8932 41.3602 33.3598 41.7068 32.7598C42.3202 31.7598 42.6668 30.5865 42.6668 29.3332C42.6668 25.6532 39.6802 22.6665 36.0002 22.6665ZM39.4535 28.6132L35.8935 31.8932C35.6535 32.1198 35.3468 32.2265 35.0402 32.2265C34.7202 32.2265 34.4002 32.1065 34.1602 31.8665L32.5202 30.2132C32.0268 29.7198 32.0268 28.9332 32.5202 28.4398C33.0135 27.9465 33.8002 27.9465 34.2935 28.4398L35.0802 29.2265L37.7602 26.7598C38.2668 26.2932 39.0535 26.3198 39.5202 26.8265C39.9868 27.3465 39.9602 28.1465 39.4535 28.6132Z" fill="#936EFE"/>
</svg>
