<?xml version="1.0" encoding="UTF-8" standalone="no"?><svg width="72" height="72" viewBox="0 0 72 72" fill="none" xmlns="http://www.w3.org/2000/svg">
<rect width="72" height="72" rx="8" fill="#F9FBFC"/>
<path d="M45.0801 28.3333H46.8934C46.6401 27.9733 46.3734 27.64 46.0934 27.3066L45.0801 28.3333Z" fill="#936EFE"/>
<path d="M44.6932 25.8938C44.3598 25.6138 44.0265 25.3471 43.6665 25.0938V26.9071L44.6932 25.8938Z" fill="#936EFE"/>
<path d="M46.1067 27.3066L50.04 23.3733C50.4267 22.9866 50.4267 22.3466 50.04 21.9599C49.6534 21.5733 49.0134 21.5733 48.6267 21.9599L44.6934 25.8933C45.2 26.3333 45.6667 26.8133 46.1067 27.3066Z" fill="#936EFE"/>
<path d="M43.6668 24C43.6668 23.4533 43.2135 23 42.6668 23C42.1335 23 41.7068 23.4267 41.6802 23.9467C42.3735 24.28 43.0402 24.6533 43.6668 25.0933V24Z" fill="#936EFE"/>
<path d="M49.0002 29.333C49.0002 28.7863 48.5469 28.333 48.0002 28.333H46.8936C47.3336 28.9597 47.7202 29.6263 48.0402 30.3197C48.5736 30.293 49.0002 29.8663 49.0002 29.333Z" fill="#936EFE"/>
<path d="M37 39.6671H37.4C37.92 39.6671 38.3333 39.2004 38.3333 38.6271C38.3333 37.9071 38.1333 37.8004 37.68 37.6404L37 37.4004V39.6671Z" fill="#936EFE"/>
<path d="M48.0532 30.3203C48.0398 30.3203 48.0265 30.3337 47.9998 30.3337H42.6665C42.5332 30.3337 42.4132 30.307 42.2798 30.2537C42.0398 30.147 41.8398 29.9603 41.7332 29.707C41.6932 29.587 41.6665 29.467 41.6665 29.3337V24.0003C41.6665 23.987 41.6798 23.9737 41.6798 23.947C39.9465 23.1337 38.0265 22.667 35.9998 22.667C28.6398 22.667 22.6665 28.6403 22.6665 36.0003C22.6665 43.3603 28.6398 49.3337 35.9998 49.3337C43.3598 49.3337 49.3332 43.3603 49.3332 36.0003C49.3332 33.9737 48.8665 32.0537 48.0532 30.3203ZM38.3332 35.7603C39.1865 36.0537 40.3332 36.6803 40.3332 38.6403C40.3332 40.307 39.0132 41.6803 37.3998 41.6803H36.9998V42.0137C36.9998 42.5603 36.5465 43.0137 35.9998 43.0137C35.4532 43.0137 34.9998 42.5603 34.9998 42.0137V41.6803H34.8932C33.1198 41.6803 31.6665 40.187 31.6665 38.347C31.6665 37.787 32.1198 37.3337 32.6665 37.3337C33.2132 37.3337 33.6665 37.787 33.6665 38.3337C33.6665 39.067 34.2132 39.667 34.8932 39.667H34.9998V36.707L33.6665 36.2403C32.8132 35.947 31.6665 35.3203 31.6665 33.3603C31.6665 31.6937 32.9865 30.3203 34.5998 30.3203H34.9998V30.0003C34.9998 29.4537 35.4532 29.0003 35.9998 29.0003C36.5465 29.0003 36.9998 29.4537 36.9998 30.0003V30.3337H37.1065C38.8798 30.3337 40.3332 31.827 40.3332 33.667C40.3332 34.2137 39.8798 34.667 39.3332 34.667C38.7865 34.667 38.3332 34.2137 38.3332 33.667C38.3332 32.9337 37.7865 32.3337 37.1065 32.3337H36.9998V35.2937L38.3332 35.7603Z" fill="#936EFE"/>
<path d="M33.6665 33.373C33.6665 34.093 33.8665 34.1997 34.3198 34.3597L34.9998 34.5997V32.333H34.5998C34.0932 32.333 33.6665 32.7997 33.6665 33.373Z" fill="#936EFE"/>
</svg>
